<svg xmlns="http://www.w3.org/2000/svg" viewBox="0 0 128 128" width="128" height="128" role="img" aria-labelledby="title desc">
  <title id="title">yolo-labz · schematic-node logo</title>
  <desc id="desc">Fan-out graph node representing the portfolio component graph, ctp-mauve nodes + ctp-blue edges on ctp-base.</desc>
  <rect width="128" height="128" fill="#1e1e2e"/>
  <g fill="none" stroke="#89b4fa" stroke-width="1.6" stroke-linecap="round">
    <line x1="64" y1="64" x2="32" y2="32"/>
    <line x1="64" y1="64" x2="96" y2="32"/>
    <line x1="64" y1="64" x2="32" y2="64"/>
    <line x1="64" y1="64" x2="96" y2="64"/>
    <line x1="64" y1="64" x2="32" y2="96"/>
    <line x1="64" y1="64" x2="96" y2="96"/>
    <line x1="64" y1="64" x2="64" y2="20"/>
    <line x1="64" y1="64" x2="64" y2="108"/>
  </g>
  <g fill="#cba6f7">
    <circle cx="64" cy="64" r="8"/>
    <circle cx="32" cy="32" r="4"/>
    <circle cx="96" cy="32" r="4"/>
    <circle cx="32" cy="64" r="4"/>
    <circle cx="96" cy="64" r="4"/>
    <circle cx="32" cy="96" r="4"/>
    <circle cx="96" cy="96" r="4"/>
    <circle cx="64" cy="20" r="4"/>
    <circle cx="64" cy="108" r="4"/>
  </g>
  <circle cx="64" cy="64" r="3" fill="#1e1e2e"/>
</svg>
