<?xml version="1.0" encoding="UTF-8" standalone="no"?>
<svg
   viewBox="0 0 470 128"
   width="470"
   height="128"
   role="img"
   aria-labelledby="t d"
   version="1.1"
   id="svg5"
   xmlns="http://www.w3.org/2000/svg"
   xmlns:svg="http://www.w3.org/2000/svg">
  <defs
     id="defs5" />
  <title
     id="t">yolo-labz</title>
  <desc
     id="d">yolo-labz horizontal lockup — YL monogram mark + monospace wordmark, ctp-text on transparent for dark surfaces.</desc>
  <g
     transform="translate(6,20) scale(0.6875)"
     id="g5">
    <g
       fill="none"
       stroke="#cdd6f4"
       stroke-width="6"
       stroke-linecap="round"
       stroke-linejoin="round"
       id="g4">
      <path
         d="M32 28 L52 60 L52 100"
         id="path1" />
      <path
         d="M72 28 L52 60"
         id="path2" />
      <path
         d="M52 100 L96 100"
         id="path3" />
      <path
         d="M88 28 L88 80"
         id="path4" />
    </g>
    <circle
       cx="52"
       cy="60"
       r="3.6"
       fill="#cba6f7"
       id="circle4" />
  </g>
  <g
     id="text5"
     style="font-weight:500;font-size:54px;font-family:'JetBrainsMono Nerd Font', 'JetBrains Mono', 'FiraCode Nerd Font', ui-monospace, monospace;letter-spacing:0.5;fill:#cdd6f4"
     aria-label="yolo-labz">
    <path
       d="M 125.45,93.72 129.77,82.218 118.7,54.3 h 5.67 l 6.696,17.55 q 0.432,1.134 0.864,2.43 0.432,1.296 0.594,2.268 0.162,-0.972 0.54,-2.268 0.378,-1.296 0.81,-2.43 l 6.21,-17.55 h 5.67 l -14.742,39.42 z m 39.65002,-9.288 q -5.454,0 -8.694,-3.132 -3.186,-3.132 -3.186,-8.748 v -6.804 q 0,-5.616 3.186,-8.748 3.24,-3.132 8.694,-3.132 5.454,0 8.64,3.132 3.24,3.132 3.24,8.748 v 6.804 q 0,5.616 -3.24,8.748 -3.186,3.132 -8.64,3.132 z m 0,-4.698 q 3.024,0 4.752,-1.674 1.782,-1.728 1.782,-5.022 v -7.776 q 0,-3.294 -1.782,-4.968 -1.728,-1.728 -4.752,-1.728 -3.024,0 -4.806,1.728 -1.728,1.674 -1.728,4.968 v 7.776 q 0,3.294 1.728,5.022 1.782,1.674 4.806,1.674 z M 202.42804,84 q -4.05,0 -6.48,-2.376 -2.43,-2.376 -2.43,-6.318 V 49.44 h -10.152 v -4.86 h 15.498 v 30.672 q 0,1.782 0.972,2.862 1.026,1.026 2.754,1.026 h 9.018 V 84 Z m 28.47202,0.432 q -5.454,0 -8.694,-3.132 -3.186,-3.132 -3.186,-8.748 v -6.804 q 0,-5.616 3.186,-8.748 3.24,-3.132 8.694,-3.132 5.454,0 8.64,3.132 3.24,3.132 3.24,8.748 v 6.804 q 0,5.616 -3.24,8.748 -3.186,3.132 -8.64,3.132 z m 0,-4.698 q 3.024,0 4.752,-1.674 1.782,-1.728 1.782,-5.022 v -7.776 q 0,-3.294 -1.782,-4.968 -1.728,-1.728 -4.752,-1.728 -3.024,0 -4.806,1.728 -1.728,1.674 -1.728,4.968 v 7.776 q 0,3.294 1.728,5.022 1.782,1.674 4.806,1.674 z"
       id="path5" />
    <path
       style="fill:#cba6f7"
       d="M 255.16008,68.556 V 63.75 h 17.28 v 4.806 z"
       id="path6" />
    <path
       d="m 301.12811,84 q -4.05,0 -6.48,-2.376 -2.43,-2.376 -2.43,-6.318 V 49.44 h -10.152 v -4.86 h 15.498 v 30.672 q 0,1.782 0.972,2.862 1.026,1.026 2.754,1.026 h 9.018 V 84 Z m 25.71801,0.54 q -4.59,0 -7.29,-2.538 -2.646,-2.592 -2.646,-6.75 0,-4.158 2.754,-6.696 2.808,-2.538 7.344,-2.538 h 8.694 V 63.75 q 0,-5.454 -6.048,-5.454 -2.7,0 -4.374,1.026 -1.62,0.972 -1.728,2.754 h -5.292 q 0.27,-3.618 3.294,-5.94 3.024,-2.376 8.1,-2.376 5.454,0 8.424,2.592 2.97,2.592 2.97,7.29 V 84 h -5.238 v -5.454 h -0.108 q -0.378,2.754 -2.754,4.374 -2.322,1.62 -6.102,1.62 z m 1.404,-4.482 q 3.402,0 5.4,-1.62 2.052,-1.674 2.052,-4.536 V 69.96 h -8.208 q -2.322,0 -3.78,1.404 -1.404,1.35 -1.404,3.618 0,2.322 1.566,3.726 1.566,1.35 4.374,1.35 z m 36.24802,4.482 q -3.348,0 -5.508,-1.674 -2.16,-1.674 -2.646,-4.644 v 0 V 84 h -5.292 V 44.58 h 5.346 v 8.532 l -0.108,6.912 v 0 q 0.486,-2.916 2.646,-4.59 2.214,-1.674 5.562,-1.674 4.428,0 7.074,3.024 2.646,2.97 2.646,8.1 v 8.532 q 0,5.13 -2.646,8.154 -2.646,2.97 -7.074,2.97 z m -1.89,-4.644 q 2.97,0 4.59,-1.512 1.674,-1.566 1.674,-5.022 v -8.424 q 0,-3.456 -1.674,-4.968 -1.62,-1.566 -4.59,-1.566 -2.862,0 -4.536,1.782 -1.674,1.782 -1.674,5.022 v 7.884 q 0,3.24 1.674,5.022 1.674,1.782 4.536,1.782 z M 383.89816,84 v -5.184 l 16.362,-19.71 h -15.93 V 54.3 h 21.978 v 5.184 l -16.632,19.71 h 17.226 V 84 Z"
       id="path7" />
  </g>
</svg>
