<svg xmlns="http://www.w3.org/2000/svg" viewBox="0 0 128 128" width="128" height="128" role="img" aria-labelledby="t d">
  <title id="t">yolo-labz mascot — gremlin working</title>
  <desc id="d">The programming gremlin hunched over a small keyboard, claws on the keys, mauve code brackets and sparks rising. Running state: a request is being served.</desc>
  <!--
    state: working / running · THE signature state — this is "the gremlin
    programming". Mauve appears (brackets + sparks) because output is being
    produced. Head at translate(62,42) scale(0.52), leaned into the keys.
  -->
  <style>
    .skin { fill: #a6e3a1; stroke: #a6e3a1; stroke-linejoin: round; stroke-linecap: round; }
    .pale { fill: #cdd6f4; stroke: #cdd6f4; stroke-linejoin: round; stroke-linecap: round; }
    .dark { fill: #181825; }
    .node { fill: #cba6f7; }
    .code { fill: none; stroke: #cba6f7; stroke-linecap: round; stroke-linejoin: round; }
    .limb { fill: none; stroke: #a6e3a1; stroke-linecap: round; }
    .key  { fill: #45475a; }
    .kbd  { fill: none; stroke: #6c7086; stroke-width: 2; stroke-linejoin: round; }
    @media (prefers-color-scheme: light) {
      .skin { fill: #40a02b; stroke: #40a02b; }
      .pale { fill: #eff1f5; stroke: #eff1f5; }
      .dark { fill: #dce0e8; }
      .node { fill: #8839ef; }
      .code { stroke: #8839ef; }
      .limb { stroke: #40a02b; }
      .key  { fill: #9ca0b0; }
      .kbd  { stroke: #9ca0b0; }
    }
  </style>
  <path class="skin" stroke-width="4" d="M 82 88 C 100 92 106 84 104 76 L 112 70 L 113 80 L 120 84 L 106 87 C 106 97 94 100 82 96 Z"/>
  <ellipse class="skin" cx="62" cy="84" rx="25" ry="15" stroke-width="4" transform="rotate(-8 62 84)"/>
  <g transform="translate(62 42) scale(0.52)">
    <path class="skin" stroke-width="6" d="M -28 -16 C -42 -38 -62 -60 -98 -68 C -98 -34 -76 -2 -44 12 Z"/>
    <path class="skin" stroke-width="6" d="M 28 -16 C 42 -38 62 -60 98 -68 C 98 -34 76 -2 44 12 Z"/>
    <ellipse class="skin" rx="48" ry="40" stroke-width="6"/>
    <circle class="pale" cx="-21" cy="-8" r="11"/>
    <circle class="pale" cx="21" cy="-8" r="11"/>
    <circle class="node" cx="-19" cy="-7" r="4.5"/>
    <circle class="node" cx="23" cy="-7" r="4.5"/>
    <path class="skin" stroke-width="5" style="fill:none" d="M -36 -25 L -8 -19 M 36 -25 L 8 -19"/>
    <path class="dark" d="M -40 12 Q 0 54 40 12 Q 0 32 -40 12 Z"/>
    <path class="pale" d="M -28 16 L -17 15 L -23 30 Z"/>
    <path class="pale" d="M 17 15 L 28 16 L 23 29 Z"/>
    <path class="pale" d="M -6 35 L 6 35 L 0 25 Z"/>
  </g>
  <path class="limb" stroke-width="7" d="M 44 84 Q 38 92 46 96 M 80 82 Q 88 90 78 95"/>
  <path class="pale" stroke-width="3" style="fill:none" d="M 42 94 l -2 6 M 48 96 l 0 6 M 84 93 l 2 6 M 78 96 l 0 6"/>
  <path class="dark" d="M 26 98 L 100 98 L 108 116 L 18 116 Z"/>
  <path class="kbd" d="M 26 98 L 100 98 L 108 116 L 18 116 Z"/>
  <path class="key" d="M 32 103 h 10 v 5 h -10 Z M 46 103 h 10 v 5 h -10 Z M 60 103 h 10 v 5 h -10 Z M 74 103 h 10 v 5 h -10 Z M 88 103 h 10 v 5 h -10 Z"/>
  <path class="key" d="M 30 111 h 66 v 3.5 h -66 Z" opacity="0.7"/>
  <path class="code" d="M 110 34 L 102 42 L 110 50"/>
  <path class="code" stroke-width="4" d="M 117 34 L 124 42 L 117 50"/>
  <path class="code" stroke-width="3" d="M 30 76 l -5 -5 M 96 74 l 5 -5 M 34 88 l -7 -2"/>
</svg>
